<svg id="Ebene_2" data-name="Ebene 2" xmlns="http://www.w3.org/2000/svg" viewBox="0 0 116 48"><title>ffeel-Graphics-F4</title><path id="Logo" d="M99.2091,1.89163,88.41283,5.31611V6.303l3.42464,2.0315V42.63872l-3.65676.98671v1.62526h14.85935V43.62543l-3.831-.98671ZM78.7192,40.60722c-4.99936,0-9.17212-3.38913-10.04515-9.47147L87.1972,28.18748l0,0h0l-.00005,0-.00374-.00379c-.92922-7.71843-4.58587-11.89714-11.31846-11.89714-7.02323,0-13.93056,6.73321-13.93056,15.32384,0,7.66178,4.75956,14.45287,13.00194,14.45287,6.44285,0,10.21572-4.23715,12.65365-7.83587l-.92879-.87062C84.92984,38.6916,82.20184,40.60722,78.7192,40.60722ZM68.50331,28.70808v-.52236l.1162-1.91549c.52236-5.04987,2.67005-7.71987,5.51409-7.71987,3.07645,0,4.75972,3.01823,5.28207,7.71987l.12643,1.19612L68.513,29.22183C68.50829,29.05166,68.50331,28.88171,68.50331,28.70808Zm41.14329,8.53254a4.32434,4.32434,0,1,0,0,8.64849,4.32434,4.32434,0,1,0,0-8.64849Zm-.058-9.01207a4.32441,4.32441,0,1,0-4.29526-4.3534A4.38524,4.38524,0,0,0,109.5886,28.22854ZM30.16395,19.94331l-.018-.84707,7.57073-.99155-.35433-2.70489-7.26621.95166-.04821-4.2441c-.11612-6.21064,2.32165-8.30025,4.64355-8.30025A4.287,4.287,0,0,1,37.82581,5.084l1.335,5.39813c2.67.40648,5.63034-.34824,5.63034-3.42464,0-3.07621-4.12111-5.33994-8.18422-5.33994a13.07584,13.07584,0,0,0-9.229,4.1792,9.90743,9.90743,0,0,0-6.90733-2.72822C13.041,3.16849,6.77222,8.91487,5.205,17.09922L5.114,19.5083l-.1113.01275L.9096,21.345l.23364,1.784,3.94564-.51675v20.0265l-3.54073.98671v1.62526H16.23338V43.62543l-3.77279-.98671V21.416l.10569-.01724L22.79234,20.0594V42.63872l-3.30852.98671v1.62526H34.63346V43.62543l-4.46951-.98671Zm-7.3716-2.728v.09276l-.33611.044L12.43336,18.66485l-.03086-1.44952V15.59008c-.058-8.06819,3.07624-10.15772,5.86246-10.15772,2.786,0,4.81759,2.14762,5.80437,5.51425A17.718,17.718,0,0,0,22.79234,17.21534ZM51.14781,40.60722c-4.99936,0-9.17212-3.38915-10.04515-9.47147l18.52312-2.94827,0,0h.00005l-.00011-.00005-.00368-.00374c-.92916-7.71851-4.58587-11.89717-11.31846-11.89717-7.02323,0-13.93056,6.73321-13.93056,15.32384,0,7.66178,4.75956,14.45287,13.00194,14.45287,6.44285,0,10.21572-4.23715,12.65373-7.83587l-.92887-.87062C57.35854,38.6916,54.63046,40.60722,51.14781,40.60722ZM40.93193,28.70808v-.52236l.11625-1.91549c.5223-5.04987,2.67-7.71987,5.51409-7.71987,3.0764,0,4.75966,3.01823,5.282,7.71987l.12648,1.19609-11.02912,1.7555C40.93691,29.05166,40.93193,28.88171,40.93193,28.70808Z" fill="#fff"/></svg>