<svg id="Fin" xmlns="http://www.w3.org/2000/svg" viewBox="0 0 40 40"><title>ffeel-Feature-Icons-F4</title><path d="M32.72754,7.27246A17.99963,17.99963,0,0,0,7.272,32.72754,17.99963,17.99963,0,1,0,32.72754,7.27246ZM7.979,7.97949a16.9686,16.9686,0,0,1,23.67078-.3363l-4.79724,4.79712V8.2998a.49971.49971,0,0,0-.5-.5H18.15576a.49964.49964,0,0,0-.35352.14648L13.7041,12.04492a.49964.49964,0,0,0-.14648.35352v3.59863H12.0083a.49964.49964,0,0,0-.35352.14648L7.55615,20.24121a.49964.49964,0,0,0-.14648.35352V28.792a.49971.49971,0,0,0,.5.5h2.09088L7.64343,31.64911A17.00843,17.00843,0,0,1,7.979,7.97949ZM28.60455,20.09473H23.46112l3.09839-3.09766h5.14343Zm3.8056-2.39081v6.78241L29.31152,27.585V20.80182ZM19.70508,21.09473v3.3916L16.60645,27.585V24.10028l3.00562-3.00555Zm-5.64746,0h1.54883v2.59149L11.00055,28.292H8.40967V21.09473Zm-4.94073-1,3.09845-3.09766h1.34229v3.09766Zm12.637-7.19629v4.64044L19.198,20.09473H14.55762V12.89844Zm-6.48932-1L18.36279,8.7998h6.78271l-3.09863,3.09863ZM18.198,21.09473l-1.59155,1.59149V21.09473Zm-2.59155,4.00549V28.292H12.41461Zm6.14746-6.14734v1.14185H20.61206Zm-.63965,2.14185h7.19727V28.292H21.11426ZM25.85254,16.29l-3.09863,3.09784V17.95294l3.09863-3.09857Zm-3.09863.24884V12.60547l3.09863-3.09863v3.93347Zm9.2666,15.48163a16.9686,16.9686,0,0,1-23.67078.3363L11.41461,29.292h4.69183a.49964.49964,0,0,0,.35352-.14648l3.65479-3.65479V28.792a.49971.49971,0,0,0,.5.5h8.19678a.49964.49964,0,0,0,.35352-.14648l4.09863-4.09863a.49964.49964,0,0,0,.14648-.35352V16.49707a.49971.49971,0,0,0-.5-.5H26.85254v-2.1427l5.50427-5.50415a16.968,16.968,0,0,1-.3363,23.67029Z" fill="#1e1e1e"/></svg>