<svg id="Fin" xmlns="http://www.w3.org/2000/svg" viewBox="0 0 40 40"><title>ffeel-Feature-Icons-F4</title><path d="M35.31836,10.01465c0-.01245-.00616-.02283-.00708-.035a20.54805,20.54805,0,0,0-.69116-5.42688l-.0752-.2793-.2793-.0752A20.54087,20.54087,0,0,0,28.469,3.52087a.2188.2188,0,0,0-.16949.0061A20.73841,20.73841,0,0,0,23.48,4.25031L23.47852,4.25a.48641.48641,0,0,0-.24976.07635A20.66576,20.66576,0,0,0,18.40112,6.4126a.49273.49273,0,0,0-.20361.12567,20.409,20.409,0,0,0-3.81763,2.9881c-.37732.37726-.73285.77106-1.07654,1.1731a.48438.48438,0,0,0-.05707.06982A20.67234,20.67234,0,0,0,9.05176,29.41211l.02582.09576a45.18456,45.18456,0,0,0-4.33539,6.25385.4999.4999,0,1,0,.87891.47656,44.9315,44.9315,0,0,1,4.42212-6.32416,20.49658,20.49658,0,0,0,18.37708-4.68585.49334.49334,0,0,0,.20557-.18585c.22131-.20258.45386-.38971.66711-.603a20.443,20.443,0,0,0,3.287-4.30383.48382.48382,0,0,0,.06506-.12274,20.6995,20.6995,0,0,0,1.97449-4.85449.48916.48916,0,0,0,.05823-.22284l-.00287-.0141a20.728,20.728,0,0,0,.63336-4.85651A.46421.46421,0,0,0,35.31836,10.01465ZM23.97852,5.15332a19.72566,19.72566,0,0,1,3.9209-.61023V9.79553c-.489.45319-1.94318,1.80951-3.9209,3.7298ZM19.05859,7.178a19.64884,19.64884,0,0,1,3.91992-1.73175v9.05536c-1.19446,1.17126-2.52478,2.49634-3.91992,3.92273Zm-4.91992,4.07947c.30341-.35059.61774-.69354.94824-1.024a19.41866,19.41866,0,0,1,2.97168-2.43365v11.653c-1.29181,1.33685-2.61792,2.74152-3.91992,4.16956ZM9.871,28.5293a19.67762,19.67762,0,0,1,3.26764-16.00452V24.72913C12.00317,25.99829,10.903,27.27472,9.871,28.5293Zm.88043.51782c1.02856-1.24335,2.12616-2.51038,3.25861-3.77173H26.83582A19.68635,19.68635,0,0,1,10.75146,29.04712Zm17.83447-5.3147c-.188.188-.3855.36365-.5802.543H14.91589c1.22217-1.33862,2.46527-2.65686,3.68243-3.91992h12.6723A19.41121,19.41121,0,0,1,28.58594,23.73242Zm3.27588-4.377H19.5675c1.38116-1.41669,2.70911-2.74591,3.903-3.92151l.008.00159H33.49725A19.6793,19.6793,0,0,1,31.86182,19.35547Zm1.90076-4.91992H24.49005c2.11566-2.06262,3.65912-3.50555,4.10608-3.9209h5.69775A19.71164,19.71164,0,0,1,33.76257,14.43555Zm-4.86316-4.9209V4.5105a19.552,19.552,0,0,1,4.82715.5813,19.53152,19.53152,0,0,1,.574,4.42285Z" fill="#1e1e1e"/></svg>