<svg xmlns="http://www.w3.org/2000/svg" viewBox="0 0 32 32"><title>ffeel Icons 32</title><g id="Ebene_1" data-name="Ebene 1"><path d="M22.585,8.91455H19.97168l-.42871,1.6377a4.385,4.385,0,0,0-3.74414-2.06689c-4.6416,0-7.17676,3.627-7.17676,7.99512,0,4.251,2.10645,7.44922,6.124,7.44922a5.2195,5.2195,0,0,0,4.67969-2.88574c.27344,2.02832,1.87207,2.96387,3.82227,2.96387,5.69434,0,7.87793-5.77246,7.87793-10.49121a12.52768,12.52768,0,0,0-3.627-9.28223A15.352,15.352,0,0,0,16.54.17822,16.56334,16.56334,0,0,0,4.83887,4.624,15.195,15.195,0,0,0,.31543,15.97363,15.9586,15.9586,0,0,0,5.1123,27.94727a15.03565,15.03565,0,0,0,10.41309,3.74414,21.95884,21.95884,0,0,0,9.8291-1.9502V26.89453a23.43043,23.43043,0,0,1-9.79,1.87109,11.54171,11.54171,0,0,1-8.46289-3.35352,12.93493,12.93493,0,0,1-3.47168-9.08789A13.00073,13.00073,0,0,1,7.76465,6.22314,12.98079,12.98079,0,0,1,16.5791,3.064a11.87177,11.87177,0,0,1,8.58008,3.12012,9.99306,9.99306,0,0,1,2.80762,7.37158c0,2.61328-1.0918,7.68359-4.48437,7.68359-1.48242,0-1.67773-1.28711-1.59961-2.458ZM15.25293,21.083c-2.57422,0-3.31543-2.457-3.31543-4.60254,0-2.33984.89746-5.3042,3.70508-5.3042,2.69141,0,3.50977,2.145,3.50977,4.48584C19.15234,18.23535,18.334,21.083,15.25293,21.083Z" fill="#fff"/></g></svg>