<svg xmlns="http://www.w3.org/2000/svg" viewBox="0 0 32 32"><title>ffeel Icons 32</title><g id="Ebene_1" data-name="Ebene 1"><path d="M13.63318,12.00671V14.066H11.11542v3.28009h2.51776V25h3.28009V17.34613h2.48755L19.798,14.066H16.91327V12.31073c0-.89136.19574-1.5257,1.472-1.5257h1.69983V8.06024a17.85863,17.85863,0,0,0-2.38123-.11951A3.79138,3.79138,0,0,0,13.63318,12.00671ZM16,.44366A15.55634,15.55634,0,1,0,31.55634,16,15.5563,15.5563,0,0,0,16,.44366Zm0,28.61267A13.05634,13.05634,0,1,1,29.05634,16,13.07113,13.07113,0,0,1,16,29.05634Z" fill="#fff"/></g></svg>