<svg xmlns="http://www.w3.org/2000/svg" viewBox="0 0 32 32"><title>ffeel Icons 32</title><g id="Ebene_1" data-name="Ebene 1"><path d="M30.13733,10.13666A10.43988,10.43988,0,0,0,29.476,6.68335a6.98483,6.98483,0,0,0-1.64136-2.51868,6.96869,6.96869,0,0,0-2.51868-1.64,10.43132,10.43132,0,0,0-3.452-.66132C20.34668,1.794,19.86267,1.778,16,1.778s-4.34668.016-5.864.08533a10.43132,10.43132,0,0,0-3.452.66132,6.98,6.98,0,0,0-2.51868,1.64A6.98483,6.98483,0,0,0,2.524,6.68335a10.43988,10.43988,0,0,0-.66132,3.45331c-.068,1.516-.08533,2.00134-.08533,5.864,0,3.86133.01733,4.34534.08533,5.86267A10.44021,10.44021,0,0,0,2.524,25.31665,6.96874,6.96874,0,0,0,4.16534,27.834,6.96721,6.96721,0,0,0,6.684,29.47534a10.43132,10.43132,0,0,0,3.452.66132c1.51733.06934,2.00134.08533,5.864.08533s4.34668-.016,5.864-.08533a10.43132,10.43132,0,0,0,3.452-.66132,7.28718,7.28718,0,0,0,4.16-4.15869,10.44021,10.44021,0,0,0,.66132-3.45331c.068-1.51733.08533-2.00134.08533-5.86267C30.22266,12.138,30.20532,11.65265,30.13733,10.13666Zm-2.56,11.61066a7.89046,7.89046,0,0,1-.49066,2.64136A4.704,4.704,0,0,1,24.388,27.08734a7.93493,7.93493,0,0,1-2.64136.48932c-1.49866.068-1.94934.084-5.74664.084s-4.248-.016-5.74664-.084A7.93493,7.93493,0,0,1,7.612,27.08734a4.39718,4.39718,0,0,1-1.63464-1.064,4.37924,4.37924,0,0,1-1.064-1.63464,7.89046,7.89046,0,0,1-.49066-2.64136c-.068-1.5-.08264-1.95068-.08264-5.74664,0-3.79871.01465-4.248.08264-5.748a7.89,7.89,0,0,1,.49066-2.6413,4.39066,4.39066,0,0,1,1.064-1.6347A4.41286,4.41286,0,0,1,7.612,4.91266a7.86139,7.86139,0,0,1,2.64136-.48932c1.49866-.068,1.94928-.0827,5.74664-.0827s4.248.01471,5.74664.0827a7.86139,7.86139,0,0,1,2.64136.48932,4.7137,4.7137,0,0,1,2.69867,2.69867,7.89,7.89,0,0,1,.49066,2.6413c.068,1.5.08264,1.94934.08264,5.748C27.66,19.79663,27.64532,20.24731,27.57733,21.74731ZM16,8.6969a7.30334,7.30334,0,1,0,7.304,7.30267A7.3036,7.3036,0,0,0,16,8.6969Zm0,12.044a4.74066,4.74066,0,1,1,4.74133-4.74133A4.74208,4.74208,0,0,1,16,20.74091ZM23.59149,6.7016a1.70667,1.70667,0,1,0,1.70667,1.70667A1.70651,1.70651,0,0,0,23.59149,6.7016Z" fill="#fff"/></g></svg>