<svg id="Fin" xmlns="http://www.w3.org/2000/svg" viewBox="0 0 40 40"><title>ffeel-Feature-Icons-F4</title><path d="M32.5,10.5a7.00786,7.00786,0,0,1-7-7,.5.5,0,0,0-1,0,7.00786,7.00786,0,0,1-7,7,.5.5,0,0,0,0,1,7.00786,7.00786,0,0,1,7,7,.5.5,0,0,0,1,0,7.00786,7.00786,0,0,1,7-7,.5.5,0,0,0,0-1ZM25,15.71484A8.043,8.043,0,0,0,20.28516,11,8.043,8.043,0,0,0,25,6.28516,8.043,8.043,0,0,0,29.71484,11,8.043,8.043,0,0,0,25,15.71484Zm2.5,14.65674a4.50492,4.50492,0,0,1-4.5-4.5.5.5,0,0,0-1,0,4.50492,4.50492,0,0,1-4.5,4.5.5.5,0,0,0,0,1,4.50492,4.50492,0,0,1,4.5,4.5.5.5,0,0,0,1,0,4.50492,4.50492,0,0,1,4.5-4.5.5.5,0,0,0,0-1Zm-5,3.20947a5.53236,5.53236,0,0,0-2.70947-2.70947A5.53236,5.53236,0,0,0,22.5,28.16211a5.53236,5.53236,0,0,0,2.70947,2.70947A5.53236,5.53236,0,0,0,22.5,33.58105ZM18.5,20a.49971.49971,0,0,0-.5-.5,6.00656,6.00656,0,0,1-6-6,.5.5,0,0,0-1,0,6.00656,6.00656,0,0,1-6,6,.5.5,0,0,0,0,1,6.00656,6.00656,0,0,1,6,6,.5.5,0,0,0,1,0,6.00656,6.00656,0,0,1,6-6A.49971.49971,0,0,0,18.5,20Zm-7,3.90137A7.03774,7.03774,0,0,0,7.59863,20,7.03774,7.03774,0,0,0,11.5,16.09863,7.03774,7.03774,0,0,0,15.40137,20,7.03774,7.03774,0,0,0,11.5,23.90137Z" fill="#1e1e1e"/></svg>