<svg id="Fin" xmlns="http://www.w3.org/2000/svg" viewBox="0 0 40 40"><title>ffeel-Feature-Icons-F4</title><path d="M20,33.36377a7.00786,7.00786,0,0,1-7-7,.5.5,0,0,0-1,0,8.00917,8.00917,0,0,0,8,8,.5.5,0,0,0,0-1Zm.42334-31.12988a.51969.51969,0,0,0-.84668,0c-.458.728-11.21289,17.90674-11.21289,24.12988a11.636,11.636,0,1,0,23.272,0C31.63574,20.14063,20.88135,2.96191,20.42334,2.23389ZM20,37A10.64839,10.64839,0,0,1,9.36377,26.36377c0-5.26416,8.60889-19.6084,10.63623-22.91309,2.02734,3.30469,10.63574,17.64795,10.63574,22.91309A10.64829,10.64829,0,0,1,20,37Z" fill="#1e1e1e"/></svg>