<svg id="Fin" xmlns="http://www.w3.org/2000/svg" viewBox="0 0 40 40"><title>ffeel-Feature-Icons-F4</title><path d="M12.24994,16.5a2.5,2.5,0,1,0-2.5,2.5A2.50283,2.50283,0,0,0,12.24994,16.5Zm-2.5,1.5a1.5,1.5,0,1,1,1.5-1.5A1.5,1.5,0,0,1,9.74994,18Zm3,8a2,2,0,1,0,2,2A2.00229,2.00229,0,0,0,12.74994,26Zm0,3a1,1,0,1,1,1-1A1,1,0,0,1,12.74994,29ZM26.50012,7.06494a2.5,2.5,0,1,0,2.5,2.5A2.50286,2.50286,0,0,0,26.50012,7.06494Zm0,4a1.5,1.5,0,1,1,1.5-1.5A1.5,1.5,0,0,1,26.50012,11.06494Zm4.24994,8.07916a2,2,0,1,0,2,2A2.00229,2.00229,0,0,0,30.75006,19.1441Zm0,3a1,1,0,1,1,1-1A1,1,0,0,1,30.75006,22.1441ZM23.24994,24a2.5,2.5,0,1,0,2.5,2.5A2.50283,2.50283,0,0,0,23.24994,24Zm0,4a1.5,1.5,0,1,1,1.5-1.5A1.5,1.5,0,0,1,23.24994,28Zm-10.5-24a2,2,0,1,0,2,2A2.00229,2.00229,0,0,0,12.74994,4Zm0,3a1,1,0,1,1,1-1A1,1,0,0,1,12.74994,7Zm7.5,11.04578a2,2,0,1,0-2,2A2.00225,2.00225,0,0,0,20.24994,18.04578Zm-2,1a1,1,0,1,1,1-1A1,1,0,0,1,18.24994,19.04578ZM20.74994,32a2,2,0,1,0,2,2A2.00229,2.00229,0,0,0,20.74994,32Zm0,3a1,1,0,1,1,1-1A1,1,0,0,1,20.74994,35Z" fill="#1e1e1e"/></svg>