<svg id="Ebene_3" data-name="Ebene 3" xmlns="http://www.w3.org/2000/svg" viewBox="0 0 112 48"><title>ffeel-Graphics-F4</title><path id="Melitta_Script" data-name="Melitta Script" d="M29.97379,6.63125a253.0324,253.0324,0,0,0-22.376,27.72912A134.08991,134.08991,0,0,0,.0141,46.71478c-.11765.21912.53164.61589.81456.20956C6.3273,39.06586,11.58486,31.90307,17.06442,24.999A201.28576,201.28576,0,0,1,32.1288,8.06678C29.78038,11.71161,24.77193,20.672,21.244,26.62882c-3.39981,5.73941-7.29166,12.37889-7.72989,13.57554-.28726.77266.85266,2.02785,1.69107,1.01939,3.25352-3.9738,5.25757-6.51895,8.03286-9.97422a94.60869,94.60869,0,0,1,9.32565-9.76608c-.756,1.47191-4.42871,6.7826-6.558,10.8243-1.31953,2.50662-4.02667,7.22113-4.07906,7.88233-.051.65881.97178,2.1317,1.7182,1.57767,2.92485-3.0606,11.053-11.81227,14.74956-15.0515C34.19763,32.03956,29.7056,40.80362,30.09,43.50315a3.08892,3.08892,0,0,0,4.06955,2.81529c2.84866-.68359,7.828-4.80173,7.828-4.80173a3.21846,3.21846,0,0,0,2.45657,1.42669c2.56281-.081,5.3481-1.99024,9.33663-4.64354-1.00988,2.85861-1.71347,4.46969-1.51815,5.27708a1.48087,1.48087,0,0,0,1.6863,1.19665c.29394-.00239,1.129.00761,3.66991-1.53723,1.81161-1.19709,5.6877-3.929,6.46085-4.4611-.69549,1.27665-2.01024,3.16065-1.80683,3.72751.31438.86554,2.01784.6631,2.97055-.2158a13.64724,13.64724,0,0,0,1.84068-3.09728c.95749-1.84971,1.64488-3.66463.9508-4.10477-1.00988-.6412-2.89768.29482-4.88743,1.581-3.17543,2.05117-6.60856,5.05655-7.16591,4.49012-1.14182.07814,3.35215-7.484,3.35215-7.484C67.52708,25.92713,73.513,21.64612,77.50014,17.004a42.06825,42.06825,0,0,0,4.1653-5.36454,6.04155,6.04155,0,0,0,1.03987-2.43657c.13814-.76935-.7193-.89007-1.21-1.05992-1.46381-.51208-5.44,1.32192-7.54078,2.82007a37.51628,37.51628,0,0,0-8.72548,8.0114c-3.20587,3.91258-4.654,5.99833-8.42822,13.37091a46.28732,46.28732,0,0,1-4.72212,3.87092c-1.81351,1.27758-6.44851,4.86694-7.62653,3.49264,2.53091-1.87112,6.6309-5.0146,8.43919-7.51361,1.07987-1.49264,1.26567-2.65188.2477-3.23616-1.30523-.7512-4.07575-.43916-7.11347,1.3886a12.61411,12.61411,0,0,0-5.49576,8.98488c-.04907.3096-5.76682,5.06465-7.19591,4.45252-.80978-.34633-.18575-2.74954,3.50888-9.47336a168.27943,168.27943,0,0,1,9.34331-14.49323c1.05558-1.60937-.79744-1.56176-1.52625-1.44908a36.777,36.777,0,0,0-4.82221,3.40693c-3.38069,2.91222-8.00759,7.42712-10.36221,9.9273,2.81193-4.79456,5.01416-8.10359,6.76714-11.18658,2.5152-4.42227,5.00514-7.53053,3.83663-8.06164-1.72776-.46828-3.79854,1.65152-6.83768,4.69378-2.71524,2.7169-6.50232,6.816-8.49826,8.61187,1.75634-2.36511,4.85411-7.34951,7.17113-11.20161,4.4411-7.325,7.27064-12.65781,6.5928-13.21277C36.90814-.09184,33.202,3.19432,29.97379,6.63125M71.63473,28.71862c-.79217-1.40933-2.69622-.83222-3.69034,1.13373-.54594,1.08207-.27439,2.4073.9608,2.59115,1.77064.26677,3.48074-2.38394,2.72954-3.72488M82.923,18.54572c-4.78124,5.8078-10.30841,15.9747-10.30841,15.9747s-.74788.2358-1.85307.4773c-1.60386.34443.535,1.623.24775,2.68286-.53686,1.9917-.78456,2.38086-1.19426,3.82424-.29867,1.04558,2.00073,1.32187,2.39135.39536A41.7298,41.7298,0,0,1,75.11357,35.849s5.93257-4.23174,8.69548-6.04667c-.89749,1.81966-3.19635,5.31688-3.19635,5.31688a18.98964,18.98964,0,0,0-1.89927.19146c-.34155.04527-.63974.73837-.55116.8651.70027.96178,1.14183,1.21807.756,2.0636C78.3166,39.566,78.22754,40.221,77.532,41.93924c-.63686,1.57342,2.37847,1.25045,3.00109-.24058a24.6485,24.6485,0,0,1,2.34369-4.816l3.636-.79886A9.50759,9.50759,0,0,0,85.23,37.60107c-1.06231,1.541-1.66586,3.95375,1.29426,4.72548,1.77347.46062,3.98858-.82412,5.31474-1.84737a3.59973,3.59973,0,0,0,1.89737,4.52212c3.4998,1.70869,9.06844-3.12016,10.537-5.19854-2.1417,1.11709-5.85921,3.20113-8.14242,3.27308a1.62784,1.62784,0,0,1-1.93258-1.8878c.14292-2.85339,3.96472-7.143,4.54783-7.72989.34438-.58735-.27629-1.46147-1.57059-.83842a6.37219,6.37219,0,0,0-1.59723,1.1347,4.33787,4.33787,0,0,0-2.55183-1.168,6.9514,6.9514,0,0,0-4.50637,1.50767s-2.90914.544-4.55876.7331C87.68469,27.426,92.94085,21.612,93.5363,20.62025c.22531-.37867.42872-.85647-.11288-.92412a2.74473,2.74473,0,0,0-2.0655.55116,53.15254,53.15254,0,0,0-6.2613,7.28517s-5.53669,3.69727-8.21862,5.455A107.22984,107.22984,0,0,1,87.10354,16.77055c.22863-.29531.41155-.5073.15434-.56281a5.06007,5.06007,0,0,0-1.87068.262,6.29172,6.29172,0,0,0-2.46417,2.076m-8.85411-2.19506c-3.66937,3.4441-6.77382,7.00723-12.03427,11.20707a58.29069,58.29069,0,0,1,9.673-12.17812c2.88529-2.77241,5.13372-3.8959,5.54-3.421.46687.55018-2.01024,3.29879-3.17874,4.392M48.35837,33.83448c-1.80064,1.7001-4.27769,3.77849-4.27769,3.77849a9.399,9.399,0,0,1,2.44847-4.84314c1.26045-1.45981,2.931-2.10385,3.53269-1.8759.8989.3675-.9032,2.18741-1.70347,2.94056m39.97416,5.137c-.18243-1.42908,1.28192-2.78524,2.36467-3.37025,1.50864-.81456,3.0168-.301,3.00724.76505-.00761.77837-1.3986,2.5971-2.97246,3.22211-.97319.38633-2.26892.41921-2.39945-.61691M99.85786,22.11387a5.67109,5.67109,0,1,1,5.68629,5.68678,5.67572,5.67572,0,0,1-5.68629-5.68678m10.44655,0a4.775,4.775,0,1,0-9.54623,0,4.77593,4.77593,0,1,0,9.54623,0m-1.92927,3.17162h-.93173l-1.80732-2.91841h-1.4224v2.91841h-.77837V18.95634H106.203c1.67537,0,2.24555.62784,2.24555,1.67752,0,1.24016-.86885,1.7063-1.99307,1.73322Zm-2.98006-3.53127c.89841,0,2.21506.15009,2.21506-1.13631,0-.98846-.80837-1.10758-1.5863-1.10758H104.2137v2.24389Z" fill="#707070"/></svg>